<svg id="Layer_1" data-name="Layer 1" xmlns="http://www.w3.org/2000/svg" viewBox="0 0 128 128"><title>PARTY POPPER</title><polygon points="64 118.5 41 58.333 87 58.333 64 118.5" style="fill:#2ec3fc"/><polygon points="73.469 64.924 64 118.5 87 58.333 73.469 64.924" style="fill:#1ba4fc"/><ellipse cx="64" cy="58.333" rx="23" ry="7.232" style="fill:#f8b62b"/><circle cx="69.664" cy="92.417" r="4" style="fill:#f9d12f"/><path d="M51.667,72.417a7.954,7.954,0,0,0-4.7,1.534l5.514,14.425a8,8,0,0,0-.817-15.959Z" style="fill:#f9d12f"/><polygon points="64 9.5 66.518 14.601 72.147 15.419 68.074 19.39 69.035 24.997 64 22.35 58.965 24.997 59.926 19.39 55.853 15.419 61.482 14.601 64 9.5" style="fill:#ec4d85"/><path d="M64,60.083a1.75,1.75,0,0,1-1.75-1.75V30.484a1.75,1.75,0,1,1,3.5,0V58.333A1.75,1.75,0,0,1,64,60.083Z" style="fill:#fd852b"/><polygon points="14.35 13.08 19.737 14.907 24.297 11.505 24.224 17.193 28.869 20.478 23.436 22.166 21.747 27.599 18.463 22.954 12.774 23.027 16.177 18.468 14.35 13.08" style="fill:#1ba4fc"/><path d="M53.331,60.082A1.751,1.751,0,0,1,51.612,58c.017-.086,1.636-8.608-1.759-13.238l-.06-.081a7.557,7.557,0,0,1-2.752,4.2c-2.8,2.187-5.9,2.421-8.292.631a6.513,6.513,0,0,1-2.216-7.362c.534-1.346,2.433-4.406,8.492-3.721.167.019.332.041.495.064-2.613-5.679-9.527-11.361-15.557-10.914a1.75,1.75,0,0,1-.268-3.49c8.04-.611,16.686,6.859,19.432,13.952a14.558,14.558,0,0,1,.6,1.924A10.2,10.2,0,0,1,52.683,42.7c4.3,5.878,2.444,15.567,2.363,15.977A1.749,1.749,0,0,1,53.331,60.082ZM43.366,41.831c-1.887,0-3.165.563-3.58,1.608a3,3,0,0,0,1.061,3.27c1.08.808,2.515.6,4.041-.59a4.361,4.361,0,0,0,1.658-3.8,8.948,8.948,0,0,0-1.914-.417A11.27,11.27,0,0,0,43.366,41.831Z" style="fill:#fd852b"/><polygon points="113.65 13.08 108.263 14.907 103.703 11.505 103.776 17.193 99.131 20.478 104.564 22.166 106.252 27.599 109.537 22.954 115.226 23.027 111.823 18.468 113.65 13.08" style="fill:#2ec3fc"/><path d="M74.668,60.082a1.749,1.749,0,0,1-1.714-1.409c-.081-.409-1.936-10.1,2.363-15.977a10.2,10.2,0,0,1,2.955-2.732,14.556,14.556,0,0,1,.6-1.924C81.618,30.947,90.272,23.5,98.3,24.088a1.751,1.751,0,0,1,1.611,1.879,1.769,1.769,0,0,1-1.879,1.611c-6.021-.45-12.943,5.235-15.557,10.914.163-.023.328-.046.495-.064,6.062-.686,7.957,2.375,8.492,3.721a6.514,6.514,0,0,1-2.216,7.362c-2.389,1.792-5.489,1.555-8.292-.631a7.559,7.559,0,0,1-2.752-4.2l-.06.081C74.752,49.387,76.371,57.909,76.388,58a1.751,1.751,0,0,1-1.719,2.087Zm6.784-17.759a4.361,4.361,0,0,0,1.658,3.8c1.527,1.19,2.963,1.4,4.041.59a3,3,0,0,0,1.062-3.272c-.5-1.265-2.269-1.825-4.847-1.532A8.961,8.961,0,0,0,81.453,42.323Z" style="fill:#fd852b"/><path d="M69.664,96.417a4,4,0,0,0,0-8c-.121,0-.235.025-.354.036l-1.339,7.576A3.964,3.964,0,0,0,69.664,96.417Z" style="fill:#f8b62b"/><polygon points="65.49 19.057 69.564 15.086 63.934 14.268 62.791 11.95 61.482 14.601 55.853 15.419 59.926 19.39 59.283 23.138 58.965 24.997 63.025 22.862 64 22.35 66.259 23.538 65.49 19.057" style="fill:#fd748c"/><polygon points="22.141 15.735 22.174 13.088 19.737 14.907 14.35 13.08 16.177 18.468 13.893 21.528 12.774 23.027 17.42 22.968 18.463 22.954 19.985 25.107 21.353 20.708 26.785 19.02 22.141 15.735" style="fill:#2ec3fc"/><polygon points="105.859 15.735 105.826 13.088 108.263 14.907 113.65 13.08 111.823 18.468 114.107 21.528 115.226 23.027 110.58 22.968 109.537 22.954 108.015 25.107 106.647 20.708 101.215 19.02 105.859 15.735" style="fill:#1ba4fc"/></svg>